<?xml version="1.0" encoding="UTF-8"?>
<svg version="1.1" xmlns="http://www.w3.org/2000/svg" width="278" height="248">
<path d="M0 0 C1.1807401 -0.00551503 1.1807401 -0.00551503 2.38533354 -0.01114148 C5.02589791 -0.02216397 7.66642291 -0.02601977 10.30700684 -0.02983093 C12.19943364 -0.03609682 14.09185922 -0.04274373 15.98428345 -0.04974365 C22.20317733 -0.07077694 28.42207144 -0.08114746 34.64099121 -0.09111023 C36.78409335 -0.09515849 38.92719536 -0.09927543 41.07029724 -0.10346031 C51.14247415 -0.12251279 61.21464373 -0.13674198 71.28683519 -0.14507228 C82.89966532 -0.15483602 94.5123044 -0.18113285 106.12506723 -0.22157317 C115.1087022 -0.25177993 124.09228256 -0.26654561 133.07596731 -0.26985329 C138.4374753 -0.27219916 143.7987792 -0.28109895 149.16023254 -0.30631447 C154.20983489 -0.32967904 159.25910003 -0.33379476 164.30874252 -0.32355309 C166.15493266 -0.3230596 168.00113986 -0.32932434 169.84727859 -0.34310913 C187.13653206 -0.46490633 201.24700819 3.08506336 214.35583496 15.10810852 C222.81178575 24.28483682 228.33709572 36.29258901 228.38191223 48.77351379 C228.38558892 49.43816729 228.38926561 50.10282079 228.39305371 50.7876153 C228.40406175 53.01359487 228.40792954 55.23952771 228.41174316 57.4655304 C228.4180102 59.06239469 228.42465722 60.65925752 228.43165588 62.25611877 C228.45267753 67.50104257 228.4630594 72.74596658 228.47302246 77.99092102 C228.47707132 79.79970312 228.48118828 81.60848506 228.48537254 83.41726685 C228.50442338 91.91967154 228.51865226 100.42206757 228.52698451 108.9244895 C228.53674413 118.72051937 228.56303068 128.51632251 228.60348541 138.31227255 C228.63371731 145.8946455 228.64846025 153.47695375 228.65176553 161.05938578 C228.65410877 165.5825396 228.66297358 170.10545119 228.6882267 174.62854004 C228.71163531 178.8902158 228.71568974 183.15149207 228.70546532 187.41321564 C228.70497287 188.96914759 228.71120653 190.52510006 228.72502136 192.08097076 C228.86228704 208.47030034 224.48696936 222.04245641 213.27380371 234.26826477 C203.63646654 243.14864634 191.48047288 248.2976056 178.46948242 248.29434204 C177.68232235 248.29801873 176.89516229 248.30169542 176.08414888 248.30548352 C173.44358451 248.31650601 170.80305951 248.32036181 168.16247559 248.32417297 C166.27004878 248.33043886 164.37762321 248.33708577 162.48519897 248.34408569 C156.26630509 248.36511898 150.04741098 248.3754895 143.82849121 248.38545227 C141.68538907 248.38950053 139.54228706 248.39361747 137.39918518 248.39780235 C127.32700828 248.41685483 117.25483869 248.43108402 107.18264723 248.43941432 C95.5698171 248.44917806 83.95717803 248.47547489 72.34441519 248.51591522 C63.36078022 248.54612197 54.37719986 248.56088765 45.39351511 248.56419533 C40.03200712 248.5665412 34.67070322 248.575441 29.30924988 248.60065651 C24.25964753 248.62402108 19.2103824 248.62813681 14.1607399 248.61789513 C12.31454977 248.61740164 10.46834256 248.62366638 8.62220383 248.63745117 C-8.66704964 248.75924837 -22.77752577 245.20927868 -35.88635254 233.18623352 C-44.34230333 224.00950522 -49.8676133 212.00175303 -49.91242981 199.52082825 C-49.91794484 198.523848 -49.91794484 198.523848 -49.92357129 197.50672674 C-49.93457933 195.28074717 -49.93844712 193.05481433 -49.94226074 190.82881165 C-49.94852778 189.23194736 -49.95517479 187.63508452 -49.96217346 186.03822327 C-49.98319511 180.79329947 -49.99357698 175.54837547 -50.00354004 170.30342102 C-50.00758889 168.49463893 -50.01170586 166.68585698 -50.01589012 164.8770752 C-50.03494096 156.37467051 -50.04916984 147.87227447 -50.05750209 139.36985254 C-50.06726171 129.57382267 -50.09354826 119.77801953 -50.13400298 109.98206949 C-50.16423489 102.39969654 -50.17897783 94.81738829 -50.1822831 87.23495626 C-50.18462634 82.71180244 -50.19349115 78.18889085 -50.21874428 73.665802 C-50.24215288 69.40412624 -50.24620731 65.14284998 -50.23598289 60.8811264 C-50.23549045 59.32519445 -50.24172411 57.76924198 -50.25553894 56.21337128 C-50.39280462 39.8240417 -46.01748694 26.25188563 -34.80432129 14.02607727 C-25.16698412 5.1456957 -13.01099046 -0.00326356 0 0 Z " fill="#0E0D24" transform="translate(49.7652587890625,-0.1471710205078125)"/>
<path d="M0 0 C8.79906232 6.88115183 16.02583222 17.23175423 18.125 28.375 C18.99514783 43.38505015 16.95615866 56.40647813 7.37890625 68.59765625 C2.16176495 74.22696256 -4.15038641 77.78853942 -10.875 81.375 C-6.85598548 84.93173351 -3.75797681 84.86060603 1.43359375 84.75 C5.25129376 84.21807083 7.09013676 82.6696527 10.125 80.375 C11.98828125 80.40625 11.98828125 80.40625 14.125 81.375 C16.484375 83.87890625 16.484375 83.87890625 18.875 86.9375 C19.67421875 87.94941406 20.4734375 88.96132812 21.296875 90.00390625 C21.90015625 90.78636719 22.5034375 91.56882812 23.125 92.375 C18.52326153 98.50021652 13.57478351 102.58716062 5.75390625 103.71777344 C-9.54555022 104.96588699 -20.81761605 102.34997374 -32.72265625 92.36328125 C-34.53298842 90.69094173 -36.09272485 88.99424683 -37.6875 87.125 C-41.1822753 83.44212065 -45.79143968 82.74146298 -50.55078125 81.43359375 C-55.52747584 79.84877091 -59.60550345 77.3355998 -63.875 74.375 C-64.926875 73.653125 -65.97875 72.93125 -67.0625 72.1875 C-75.53941276 63.71058724 -81.30197426 52.32971745 -81.48217773 40.28198242 C-81.46006226 38.90490112 -81.46006226 38.90490112 -81.4375 37.5 C-81.42726807 36.53618408 -81.41703613 35.57236816 -81.40649414 34.5793457 C-81.0253038 21.7711343 -75.96074636 12.88064244 -67.29296875 3.69921875 C-49.3440059 -13.20162948 -19.76993272 -13.10803179 0 0 Z " fill="#209CBA" transform="translate(119.875,89.625)"/>
<path d="M0 0 C8.25 0 16.5 0 25 0 C30.73852267 12.17403191 36.23798714 24.44427541 41.6875 36.75 C43.45670248 40.74233327 45.22636461 44.73446267 46.99609375 48.7265625 C47.64319809 50.1869545 47.64319809 50.1869545 48.30337524 51.67684937 C50.84285268 57.40427047 53.39833777 63.12409998 55.97265625 68.8359375 C56.54283327 70.10444335 57.11290665 71.37299579 57.68286133 72.64160156 C58.70040186 74.90336637 59.72213516 77.1632513 60.7487793 79.42089844 C61.18746338 80.39833008 61.62614746 81.37576172 62.078125 82.3828125 C62.64128418 83.62635498 62.64128418 83.62635498 63.21582031 84.89501953 C64 87 64 87 64 90 C55.42 90 46.84 90 38 90 C37.01 87.56625 36.02 85.1325 35 82.625 C34.68675781 81.86010254 34.37351562 81.09520508 34.05078125 80.30712891 C32 75.22222222 32 75.22222222 32 73 C19.13 73.33 6.26 73.66 -7 74 C-8.98 78.95 -10.96 83.9 -13 89 C-14 90 -14 90 -16.40844727 90.11352539 C-17.45057373 90.10828857 -18.4927002 90.10305176 -19.56640625 90.09765625 C-20.69111328 90.09443359 -21.81582031 90.09121094 -22.97460938 90.08789062 C-24.15861328 90.07951172 -25.34261719 90.07113281 -26.5625 90.0625 C-27.75037109 90.05798828 -28.93824219 90.05347656 -30.16210938 90.04882812 C-33.10812226 90.03699675 -36.05403681 90.02051287 -39 90 C-38.37920466 86.2249508 -37.28213245 83.08345104 -35.69140625 79.609375 C-35.20043457 78.52736816 -34.70946289 77.44536133 -34.20361328 76.33056641 C-33.6620459 75.14897949 -33.12047852 73.96739258 -32.5625 72.75 C-31.38081906 70.14992606 -30.20377708 67.54776437 -29.02734375 64.9453125 C-28.711604 64.24775848 -28.39586426 63.55020447 -28.07055664 62.83151245 C-23.44800528 52.59608715 -18.9716383 42.2954168 -14.48049927 32.00183105 C-9.79463867 21.26356502 -5.00093897 10.59565698 0 0 Z " fill="#FBB403" transform="translate(179,82)"/>
<path d="M0 0 C5.81493747 3.51397296 10.56565434 8.99141343 12.5625 15.5 C13.40461569 24.15616588 13.26931193 31.96251795 8.5625 39.5 C8.02625 40.4075 7.49 41.315 6.9375 42.25 C1.87529523 47.04577294 -3.94125167 49.77766852 -10.9375 50.125 C-18.41542249 49.73365186 -24.73148771 46.68489352 -29.875 41.25 C-35.23448479 34.20523812 -36.41065864 26.16637221 -35.4375 17.5 C-33.52105609 10.23695531 -29.20967316 4.67060469 -23.12109375 0.48046875 C-16.86118746 -3.16509152 -6.52543591 -2.91589361 0 0 Z " fill="#0E0E25" transform="translate(99.4375,103.5)"/>
<path d="M0 0 C2.39965755 2.39965755 3.13262585 4.47483575 4.3828125 7.62890625 C5.04990234 9.30436523 5.04990234 9.30436523 5.73046875 11.01367188 C6.19066406 12.18478516 6.65085938 13.35589844 7.125 14.5625 C7.82689453 16.3249707 7.82689453 16.3249707 8.54296875 18.12304688 C12 26.84625547 12 26.84625547 12 28 C4.41 28 -3.18 28 -11 28 C-9.02594301 21.41981003 -7.02180036 15.22365085 -4.375 8.9375 C-4.06304687 8.18017578 -3.75109375 7.42285156 -3.4296875 6.64257812 C-1.13970094 1.13970094 -1.13970094 1.13970094 0 0 Z " fill="#171322" transform="translate(191,108)"/>
</svg>
